# xmcd CD database file
#
# Track frame offsets:
#	150
#	9610
#	22501
#	40467
#	62073
#	84453
#	104279
#	125130
#	149255
#	167668
#	189329
#	208327
#
# Disc length: 2882 seconds
#
# Revision: 1
# Processed by: cddbd v1.5.2PL0 Copyright (c) Steve Scherf et al.
# Submitted via: CDex 1.70beta2
#
DISCID=a10b400c
DTITLE=Richard Bona - Reverence
DYEAR=2001
DGENRE=Jazz
TTITLE0=Invocation (A Prophecy)
TTITLE1=Bisso Baba (Always Together)
TTITLE2=Suninga (When Will I Ever See You?)
TTITLE3=Ekwa Mwato (Affirmation Of The Spirit)
TTITLE4=Sweet Mary (Everyone Has A Choice)
TTITLE5=Reverence (The Story Of A Miracle)
TTITLE6=Te Misea (A Scream To Save The Planet)
TTITLE7=Muntula Moto (The Benediction Of A Long Life)
TTITLE8=Laka Mba (Plea For Forgiveness (With The Pride Of Lions)
TTITLE9=Ngad'a Ndutu (Widow's Dance (Celebration Of A New Life)
TTITLE10=Esoka (Trust Your Heart)
TTITLE11=Mbanga Kumba (Two Cities, One Train)
EXTD=YEAR: 2001
EXTT0=
EXTT1=
EXTT2=
EXTT3=
EXTT4=
EXTT5=
EXTT6=
EXTT7=
EXTT8=
EXTT9=
EXTT10=
EXTT11=
PLAYORDER=
